Coordinates
version=1
nRows=14
nColumns=63
inDegrees=yes

Units are S.I. units (second, meters, Newtons, ...)
If the header above contains a line with 'inDegrees', this indicates whether rotational values are in degrees (yes) or radians (no).

endheader
time	pelvis_tilt	pelvis_list	pelvis_rotation	pelvis_tx	pelvis_ty	pelvis_tz	hip_flexion_r	hip_adduction_r	hip_rotation_r	knee_angle_r	knee_angle_r_beta	ankle_angle_r	subtalar_angle_r	mtp_angle_r	hip_flexion_l	hip_adduction_l	hip_rotation_l	knee_angle_l	knee_angle_l_beta	ankle_angle_l	subtalar_angle_l	mtp_angle_l	L5_S1_Flex_Ext	L5_S1_Lat_Bending	L5_S1_axial_rotation	L4_L5_Flex_Ext	L4_L5_Lat_Bending	L4_L5_axial_rotation	L3_L4_Flex_Ext	L3_L4_Lat_Bending	L3_L4_axial_rotation	L2_L3_Flex_Ext	L2_L3_Lat_Bending	L2_L3_axial_rotation	L1_L2_Flex_Ext	L1_L2_Lat_Bending	L1_L2_axial_rotation	L1_T12_Flex_Ext	L1_T12_Lat_Bending	L1_T12_axial_rotation	Abs_r3	Abs_r2	Abs_r1	Abs_t1	Abs_t2	neck_flexion	neck_bending	neck_rotation	arm_flex_r	arm_add_r	arm_rot_r	elbow_flex_r	pro_sup_r	wrist_flex_r	wrist_dev_r	arm_flex_l	arm_add_l	arm_rot_l	elbow_flex_l	pro_sup_l	wrist_flex_l	wrist_dev_l
3.033333	-2.841448	-3.728699	84.500989	0.333880	0.803500	0.609939	-4.885560	-1.390515	13.805090	0.391894	0.006840	16.341209	-9.049596	0.000000	-4.439040	-1.760392	-10.952844	3.187026	0.055624	17.484194	10.404786	0.000000	0.097469	-0.222621	2.022236	0.181011	-0.296086	2.148626	0.160133	-0.541280	2.148626	0.111398	-0.541280	1.769457	0.090510	-0.453968	1.643067	0.055694	-0.344839	1.516677	0.696215	-2.518330	11.247071	0.000000	0.000000	22.715528	-6.443099	-4.908072	10.988814	-0.564105	-71.096745	127.284283	89.955089	-58.521653	-20.201363	6.642286	-11.888354	-61.574615	133.285628	89.644764	0.732434	29.627106
3.050000	-3.072964	-3.741720	83.942254	0.334644	0.803448	0.610837	-4.740356	-1.660477	14.374107	0.408739	0.007134	16.304640	-9.218428	0.000000	-4.348449	-1.529513	-11.663827	3.292177	0.057459	17.514817	10.745122	0.000000	0.099937	-0.221460	1.993253	0.185594	-0.294542	2.117831	0.164187	-0.538458	2.117831	0.114218	-0.538458	1.744096	0.092802	-0.451602	1.619518	0.057104	-0.343042	1.494940	0.713843	-2.505202	11.085876	0.000000	0.000000	22.948942	-6.433600	-4.194829	10.970896	-0.588652	-68.747973	122.800564	90.001226	-56.869898	-19.239842	5.593266	-12.931039	-63.410306	133.342177	90.498075	0.210275	27.102061
3.066667	-3.300121	-3.750183	83.405919	0.335386	0.803391	0.611677	-4.597348	-1.926690	14.843808	0.424837	0.007415	16.348613	-9.218628	0.000000	-4.239011	-1.310251	-12.355767	3.459540	0.060380	17.531913	11.032649	0.000000	0.099014	-0.220750	1.952259	0.183880	-0.293597	2.074275	0.162671	-0.536731	2.074275	0.113164	-0.536731	1.708227	0.091945	-0.450153	1.586211	0.056577	-0.341942	1.464194	0.707251	-2.497167	10.857879	0.000000	0.000000	23.172204	-6.352079	-3.339302	11.130570	-0.664135	-66.943207	118.060000	89.719671	-54.452429	-17.364733	4.357831	-14.036199	-65.215081	133.503797	89.983240	-1.499493	23.625659
3.083333	-3.509830	-3.755680	82.911744	0.336058	0.803323	0.612443	-4.459608	-2.174708	15.339684	0.439227	0.007666	16.409314	-9.279340	0.000000	-4.108257	-1.114485	-12.993914	3.686121	0.064335	17.550599	11.263159	0.000000	0.096250	-0.218774	1.890447	0.178746	-0.290969	2.008600	0.158129	-0.531927	2.008600	0.110004	-0.531927	1.654141	0.089378	-0.446124	1.535988	0.054997	-0.338881	1.417836	0.687503	-2.474815	10.514101	0.000000	0.000000	23.364884	-6.165220	-2.314029	11.477859	-0.804733	-65.567599	113.168352	89.585573	-51.863367	-14.710768	2.946950	-15.145865	-67.068724	133.760686	87.975179	-4.306962	19.279855
3.100000	-3.706185	-3.748455	82.470229	0.336667	0.803240	0.613115	-4.344251	-2.408235	15.765552	0.451602	0.007882	16.528173	-9.274461	0.000000	-3.975258	-0.936902	-13.576729	3.950525	0.068950	17.585750	11.452242	0.000000	0.091402	-0.216269	1.809818	0.169743	-0.287638	1.922931	0.150165	-0.525837	1.922931	0.104464	-0.525837	1.583590	0.084876	-0.441016	1.470477	0.052227	-0.335001	1.357363	0.652878	-2.446479	10.065663	0.000000	0.000000	23.493188	-5.878775	-1.168568	12.008417	-0.966508	-64.626588	108.226041	89.419520	-49.160414	-11.742280	1.441566	-16.237329	-68.958313	134.115669	84.555427	-8.199637	14.370722
3.116667	-3.889040	-3.714610	82.113887	0.337165	0.803158	0.613679	-4.274213	-2.626081	16.117639	0.461296	0.008051	16.684515	-9.252733	0.000000	-3.858507	-0.776897	-14.094589	4.235613	0.073925	17.653946	11.646068	0.000000	0.083433	-0.213229	1.711975	0.154944	-0.283595	1.818974	0.137072	-0.518446	1.818974	0.095356	-0.518446	1.497978	0.077476	-0.434817	1.390980	0.047674	-0.330292	1.283982	0.595955	-2.412094	9.521493	0.000000	0.000000	23.529371	-5.516151	0.008164	12.669534	-1.143060	-64.051959	103.349933	89.313153	-46.593968	-8.705179	-0.068194	-17.266850	-70.819357	134.535028	79.977991	-12.985047	9.152900
3.133333	-4.053995	-3.650583	81.870383	0.337520	0.803096	0.614147	-4.259046	-2.820366	16.362034	0.468203	0.008172	16.867948	-9.222627	0.000000	-3.765377	-0.639537	-14.547928	4.525175	0.078979	17.757426	11.898537	0.000000	0.071926	-0.209423	1.602179	0.133573	-0.278533	1.702315	0.118166	-0.509191	1.702315	0.082204	-0.509191	1.401907	0.066790	-0.427055	1.301771	0.041098	-0.324396	1.201634	0.513757	-2.369035	8.910840	0.000000	0.000000	23.468528	-5.099112	1.132119	13.366075	-1.354859	-63.722955	98.629764	89.185691	-44.381654	-5.942027	-1.465077	-18.181937	-72.569305	134.997698	74.737881	-18.316998	3.915950
3.150000	-4.196155	-3.561886	81.770325	0.337700	0.803064	0.614524	-4.299505	-2.982342	16.490887	0.471613	0.008231	17.057987	-9.222994	0.000000	-3.694281	-0.529687	-14.895715	4.806561	0.083890	17.882766	12.186868	0.000000	0.057464	-0.204975	1.486585	0.106716	-0.272617	1.579496	0.094407	-0.498377	1.579496	0.065675	-0.498377	1.300762	0.053361	-0.417986	1.207850	0.032835	-0.317507	1.114938	0.410459	-2.318723	8.267937	0.000000	0.000000	23.331331	-4.714799	2.040923	13.989793	-1.598531	-63.610505	94.171137	89.096268	-42.385611	-3.433512	-2.648609	-18.938317	-74.080521	135.474814	69.210688	-23.819306	-1.194720
3.166667	-4.298905	-3.449288	81.809454	0.337680	0.803081	0.614795	-4.396495	-3.097715	16.468779	0.471693	0.008233	17.257130	-9.183656	0.000000	-3.657449	-0.458342	-15.080940	5.060473	0.088322	18.006551	12.436769	0.000000	0.039852	-0.197886	1.370941	0.074009	-0.263189	1.456625	0.065472	-0.481141	1.456625	0.045547	-0.481141	1.199574	0.037006	-0.403530	1.113890	0.022771	-0.306526	1.028206	0.284657	-2.238528	7.624763	0.000000	0.000000	23.146981	-4.408640	2.657294	14.433788	-1.901128	-63.586346	90.041867	89.053199	-40.486802	-1.143543	-3.568163	-19.494171	-75.256354	135.960583	63.559665	-29.326933	-6.058539
3.183333	-4.395862	-3.333418	81.956704	0.337550	0.803100	0.614962	-4.521382	-3.200828	16.318832	0.468646	0.008179	17.489245	-9.082518	0.000000	-3.635653	-0.391856	-15.142587	5.286994	0.092275	18.127235	12.641874	0.000000	0.021775	-0.192937	1.279830	0.040439	-0.256606	1.359819	0.035775	-0.469107	1.359819	0.024887	-0.469107	1.119851	0.020221	-0.393437	1.039862	0.012443	-0.298859	0.959872	0.155540	-2.182540	7.118029	0.000000	0.000000	22.966241	-4.214347	2.903838	14.612414	-2.235680	-63.679204	86.350336	89.047617	-38.873026	1.060554	-4.120192	-19.858038	-75.958989	136.425610	57.687494	-34.477136	-10.574145
3.200000	-4.442768	-3.220430	82.237412	0.337220	0.803137	0.614995	-4.673152	-3.244217	16.078895	0.461436	0.008054	17.700663	-9.019629	0.000000	-3.636270	-0.375026	-15.077150	5.463264	0.095352	18.242403	12.853870	0.000000	0.003756	-0.183182	1.198927	0.006974	-0.243632	1.273860	0.006170	-0.445390	1.273860	0.004292	-0.445390	1.049061	0.003487	-0.373545	0.974128	0.002146	-0.283749	0.899195	0.026825	-2.072195	6.668073	0.000000	0.000000	22.846933	-4.160638	2.870587	14.509449	-2.640436	-63.738258	83.083941	89.109389	-37.519579	3.113495	-4.328852	-19.973295	-76.356259	136.870487	51.780354	-38.797180	-14.600608
3.216667	-4.448423	-3.116962	82.641111	0.336707	0.803184	0.614881	-4.842683	-3.236434	15.754599	0.451011	0.007872	17.880136	-8.998961	0.000000	-3.658368	-0.396310	-14.875560	5.578070	0.097356	18.339726	13.040336	0.000000	-0.012973	-0.168735	1.116994	-0.024092	-0.224417	1.186806	-0.021313	-0.410262	1.186806	-0.014827	-0.410262	0.977370	-0.012047	-0.344084	0.907558	-0.007413	-0.261370	0.837745	-0.092665	-1.908763	6.212385	0.000000	0.000000	22.815554	-4.172452	2.746249	14.184654	-3.074958	-63.721832	80.179561	89.352015	-36.432945	4.877668	-4.259269	-19.868488	-76.543386	137.323562	46.096578	-42.322750	-18.036212
3.233333	-4.417550	-3.023353	83.137647	0.336042	0.803246	0.614631	-5.023593	-3.184498	15.377100	0.437587	0.007637	18.017034	-9.021223	0.000000	-3.707428	-0.447052	-14.527513	5.622299	0.098128	18.406195	13.152231	0.000000	-0.028075	-0.150179	1.031358	-0.052138	-0.199738	1.095818	-0.046124	-0.365145	1.095818	-0.032087	-0.365145	0.902438	-0.026070	-0.306245	0.837978	-0.016042	-0.232627	0.773518	-0.200536	-1.698852	5.736103	0.000000	0.000000	22.868092	-4.254768	2.515701	13.721480	-3.489992	-63.737688	77.545231	89.881861	-35.568256	6.222593	-3.970078	-19.580819	-76.552554	137.806505	40.666785	-45.050666	-21.032462
3.250000	-4.348228	-2.939737	83.727084	0.335236	0.803325	0.614261	-5.214253	-3.084559	14.909833	0.421876	0.007363	18.107403	-9.049608	0.000000	-3.783675	-0.531653	-14.045240	5.592722	0.097611	18.442183	13.219387	0.000000	-0.040705	-0.125594	0.927057	-0.075593	-0.167040	0.984998	-0.066874	-0.305370	0.984998	-0.046521	-0.305370	0.811175	-0.037798	-0.256111	0.753234	-0.023259	-0.194545	0.695293	-0.290749	-1.420746	5.156014	0.000000	0.000000	23.008401	-4.310879	2.478349	13.193113	-3.876275	-63.697183	75.075308	90.355247	-35.004782	6.867754	-3.533240	-19.148743	-76.587158	138.309445	35.878178	-46.839177	-23.431375
